<svg width="40" height="40" viewBox="0 0 40 40" fill="none" xmlns="http://www.w3.org/2000/svg">
<rect x="0.5" y="0.5" width="39" height="39" fill="white" stroke="#09ABE4"/>
<path d="M28 28.2999V15.7001C28 15.3134 27.8081 15 27.5715 15H25.4285C25.1918 15 25 15.3134 25 15.7001V28.2999C25 28.6868 25.1918 29 25.4285 29H27.5714C27.8081 29 28 28.6868 28 28.2999Z" fill="#09ABE4"/>
<path d="M19.4001 29H21.6C21.8209 29 22 28.6543 22 28.2271V12.7727C22 12.3458 21.8209 12 21.6 12H19.4001C19.1791 12 19 12.3458 19 12.7727V28.2271C19 28.6543 19.179 29 19.4001 29Z" fill="#09ABE4"/>
<path d="M13.4286 18C13.1918 18 13 18.3516 13 18.7857V28.2141C13 28.6484 13.1918 29 13.4286 29H15.5714C15.8082 29 16 28.6484 16 28.2141V18.7857C16 18.3516 15.8082 18 15.5714 18H13.4286Z" fill="#09ABE4"/>
</svg>
