<svg width="12" height="12" fill="none" xmlns="http://www.w3.org/2000/svg"><path d="M11.996 1.25A1.386 1.386 0 0010.61 0H1.394A1.383 1.383 0 000 1.408v9.179A1.38 1.38 0 001.368 12h9.267A1.379 1.379 0 0012 10.636V1.368c.001-.04.002-.08-.003-.12zM6 3.693a2.307 2.307 0 11.004 4.615A2.306 2.306 0 116 3.693zm4.619 1.448v4.972c0 .312-.19.504-.502.504H1.87a.461.461 0 01-.485-.486V5.082h1.041c-.233.94-.126 1.84.334 2.69.337.621.82 1.104 1.434 1.45a3.686 3.686 0 003.883-.169 3.634 3.634 0 001.379-1.75c.273-.725.31-1.466.118-2.223h1.043v.06zm0-1.92a.46.46 0 01-.476.472H8.78a.457.457 0 01-.47-.46c-.002-.462-.002-.925 0-1.386a.457.457 0 01.474-.461h1.363c.27 0 .472.2.472.471v1.364z" fill="#828282"/></svg>