<svg width="22" height="12" fill="none" xmlns="http://www.w3.org/2000/svg"><path d="M21.804 10.703c-.06-.094-.425-.854-2.185-2.416-1.843-1.635-1.595-1.37.624-4.197 1.352-1.722 1.892-2.774 1.723-3.224-.16-.428-1.155-.315-1.155-.315l-3.306.018s-.244-.031-.427.073c-.178.102-.292.339-.292.339s-.524 1.333-1.222 2.466C14.09 5.838 13.5 5.964 13.26 5.816c-.56-.346-.419-1.391-.419-2.132 0-2.318.367-3.284-.716-3.534-.36-.083-.625-.138-1.545-.147C9.4-.01 8.4.007 7.836.27c-.377.176-.667.57-.49.591.219.028.714.128.976.47.34.44.328 1.431.328 1.431s.195 2.728-.455 3.067c-.447.233-1.06-.242-2.373-2.412-.672-1.11-1.18-2.34-1.18-2.34S4.543.85 4.368.728C4.157.577 3.86.53 3.86.53L.717.55S.245.563.072.759c-.154.174-.013.535-.013.535s2.462 5.504 5.248 8.279c2.556 2.543 5.458 2.376 5.458 2.376h1.314s.398-.042.6-.25c.187-.193.18-.553.18-.553s-.026-1.686.793-1.935c.808-.244 1.844 1.63 2.943 2.352.83.545 1.462.426 1.462.426l2.938-.04s1.538-.09.809-1.246z" fill="#828282"/></svg>