<svg width="16" height="12" fill="none" xmlns="http://www.w3.org/2000/svg"><path d="M14.594 6.461H9.906a1.4 1.4 0 00-1.352 1.025A1.583 1.583 0 008 7.385c-.185 0-.392.037-.554.101a1.4 1.4 0 00-1.352-1.025H1.406C.646 6.461 0 7.071 0 7.846v.923C0 10.55 1.472 12 3.281 12h.938C6.028 12 7.5 10.55 7.5 8.77c0-.255.241-.461.5-.461s.5.206.5.461c0 1.78 1.472 3.23 3.281 3.23h.938C14.528 12 16 10.55 16 8.77v-.923c0-.763-.63-1.385-1.406-1.385zm-.252-5.356c0-.004-.004-.007-.005-.012l-.001-.012A1.532 1.532 0 0012.857 0c-.851 0-1.544.682-1.544 1.52 0 .256.21.462.468.462.26 0 .469-.206.469-.461 0-.33.272-.598.607-.598.268 0 .5.17.58.421l1.04 4.194c.36 0 .637.025 1.008.176l-1.143-4.609zM3.143 0c-.687 0-1.28.434-1.479 1.081v.011c-.002.004-.005.007-.006.011L.491 5.733a2.34 2.34 0 011.015-.195l1.057-4.193a.602.602 0 01.58-.422c.335 0 .607.268.607.598 0 .255.21.461.469.461s.469-.206.469-.461C4.688.682 3.994 0 3.143 0z" fill="#828282"/></svg>