<svg width="15" height="12" fill="none" xmlns="http://www.w3.org/2000/svg"><path d="M15 1.42a6.49 6.49 0 01-1.772.479A3.02 3.02 0 0014.581.225a6.203 6.203 0 01-1.95.733A3.104 3.104 0 0010.385 0C8.682 0 7.312 1.36 7.312 3.029c0 .24.02.47.07.69A8.75 8.75 0 011.045.552c-.265.453-.42.972-.42 1.53A3.02 3.02 0 001.988 4.6 3.073 3.073 0 01.6 4.226v.033c0 1.471 1.066 2.694 2.464 2.975-.25.068-.523.1-.807.1a2.76 2.76 0 01-.582-.052 3.099 3.099 0 002.874 2.11 6.24 6.24 0 01-3.813 1.29c-.252 0-.494-.01-.736-.04A8.755 8.755 0 004.718 12c5.658 0 8.752-4.615 8.752-8.616a8.27 8.27 0 00-.011-.391A6.082 6.082 0 0015 1.42z" fill="#828282"/></svg>