<svg width="40" height="40" fill="none" xmlns="http://www.w3.org/2000/svg"><path fill="#fff" stroke="#09ABE4" d="M.5.5h39v39H.5z"/><path d="M28 28.3V15.7c0-.387-.192-.7-.428-.7h-2.143c-.237 0-.429.313-.429.7v12.6c0 .387.192.7.428.7h2.143c.237 0 .429-.313.429-.7zm-8.6.7h2.2c.22 0 .4-.346.4-.773V12.773c0-.427-.18-.773-.4-.773h-2.2c-.22 0-.4.346-.4.773v15.454c0 .427.179.773.4.773zm-5.971-11c-.237 0-.429.352-.429.786v9.428c0 .434.192.786.429.786h2.142c.237 0 .429-.352.429-.786v-9.428c0-.434-.192-.786-.429-.786H13.43z" fill="#09ABE4"/></svg>